<svg width="25" height="24" viewBox="0 0 25 24" fill="none" xmlns="http://www.w3.org/2000/svg">
<path fill-rule="evenodd" clip-rule="evenodd" d="M3.72475 20.9781L1.79883 0.277344H22.9617L21.0337 20.9747L12.3675 23.2773L3.72475 20.9781Z" fill="#0071BC"/>
<path fill-rule="evenodd" clip-rule="evenodd" d="M12.398 21.5161L19.3921 19.6722L21.0308 2.00122H12.398V21.5161Z" fill="#29ABE2"/>
<path fill-rule="evenodd" clip-rule="evenodd" d="M6.20726 9.60662L6.43926 12.1418L12.398 9.60662V7.06738L6.20726 9.60662Z" fill="#B3B3B3"/>
<path fill-rule="evenodd" clip-rule="evenodd" d="M18.9976 4.35693L12.398 7.06745V9.60669L18.77 6.89207L18.9976 4.35693Z" fill="#E6E6E6"/>
<path fill-rule="evenodd" clip-rule="evenodd" d="M12.398 16.2397L12.3776 16.2426L9.42243 15.4821L9.22937 13.46H6.56978L6.94092 17.4437L12.377 18.8861L12.398 18.8813V16.2397Z" fill="#E6E6E6"/>
<path fill-rule="evenodd" clip-rule="evenodd" d="M12.398 9.60669V12.1418H15.6334L15.3393 15.4563L12.398 16.242V18.8835L17.816 17.441L18.5295 9.60669H12.398Z" fill="white"/>
<path fill-rule="evenodd" clip-rule="evenodd" d="M12.398 9.60669H6.20726L6.43926 12.1418H12.398V9.60669Z" fill="#E6E6E6"/>
<path fill-rule="evenodd" clip-rule="evenodd" d="M12.398 6.89207V4.35693H12.3712H5.73692L5.97167 6.89207H12.398Z" fill="#E6E6E6"/>
<path fill-rule="evenodd" clip-rule="evenodd" d="M12.398 4.35693V6.86028V6.89207H18.77L18.9976 4.35693H12.398Z" fill="white"/>
</svg>
