<svg width="23" height="22" viewBox="0 0 23 22" fill="none" xmlns="http://www.w3.org/2000/svg">
<path d="M7.74284 22.0001C9.76684 22.0001 11.4095 20.3574 11.4095 18.3334V14.6667H7.74284C5.71884 14.6667 4.07617 16.3094 4.07617 18.3334C4.07617 20.3574 5.71884 22.0001 7.74284 22.0001Z" fill="#0ACF83"/>
<path d="M4.07617 10.9999C4.07617 8.97592 5.71884 7.33325 7.74284 7.33325H11.4095V14.6666H7.74284C5.71884 14.6666 4.07617 13.0239 4.07617 10.9999Z" fill="#A259FF"/>
<path d="M4.07617 3.66667C4.07617 1.64267 5.71884 0 7.74284 0H11.4095V7.33333H7.74284C5.71884 7.33333 4.07617 5.69067 4.07617 3.66667Z" fill="#F24E1E"/>
<path d="M11.4095 0H15.0762C17.1002 0 18.7428 1.64267 18.7428 3.66667C18.7428 5.69067 17.1002 7.33333 15.0762 7.33333H11.4095V0Z" fill="#FF7262"/>
<path d="M18.7428 10.9999C18.7428 13.0239 17.1002 14.6666 15.0762 14.6666C13.0522 14.6666 11.4095 13.0239 11.4095 10.9999C11.4095 8.97592 13.0522 7.33325 15.0762 7.33325C17.1002 7.33325 18.7428 8.97592 18.7428 10.9999Z" fill="#1ABCFE"/>
</svg>
