<svg width="27" height="27" viewBox="0 0 27 27" fill="none" xmlns="http://www.w3.org/2000/svg">
<g clip-path="url(#clip0_1_767)">
<path d="M3.65039 21.7637L3.80779 21.5433L11.2535 7.41529L11.2693 7.26573L7.98702 1.10053C7.71203 0.584083 6.93788 0.714658 6.84763 1.29278L3.65039 21.7637Z" fill="#FFC24A"/>
<path d="M3.74323 21.5955L3.8623 21.3634L11.23 7.38345L7.956 1.19316C7.68389 0.682126 6.9929 0.812399 6.9036 1.38446L3.74323 21.5955Z" fill="#FFA712"/>
<path d="M13.662 11.9291L16.1059 9.42624L13.6613 4.75952C13.4293 4.31778 12.7813 4.3165 12.5517 4.75952L11.2457 7.25037V7.4625L13.662 11.9291Z" fill="#F4BD62"/>
<path d="M13.6184 11.8249L15.9943 9.39162L13.6184 4.86751C13.3928 4.43805 12.8448 4.39306 12.6215 4.82375L11.3086 7.35319L11.2693 7.4825L13.6184 11.8249Z" fill="#FFA50E"/>
<path d="M3.65039 21.7637L3.72174 21.6919L3.98096 21.5866L13.5085 12.0945L13.6292 11.7659L11.2525 7.23682L3.65039 21.7637Z" fill="#F6820C"/>
<path d="M13.9672 26.5509L22.5898 21.7419L20.1275 6.57721C20.0505 6.10274 19.4684 5.91517 19.1288 6.25537L3.65039 21.7638L12.2236 26.5504C12.7654 26.8529 13.4252 26.8531 13.9672 26.5509Z" fill="#FDE068"/>
<path d="M22.5126 21.7016L20.0689 6.65198C19.9925 6.18112 19.5084 5.98627 19.1714 6.32389L3.74598 21.7343L12.225 26.4736C12.7627 26.7738 13.4176 26.7739 13.9554 26.474L22.5126 21.7016Z" fill="#FCCA3F"/>
<path d="M13.9672 26.409C13.4252 26.7112 12.7654 26.7111 12.2236 26.4086L3.71944 21.6906L3.65039 21.7635L12.2236 26.5502C12.7654 26.8527 13.4252 26.8529 13.9672 26.5506L22.5898 21.7417L22.5687 21.6118L13.9672 26.409Z" fill="#EEAB37"/>
</g>
<defs>
<clipPath id="clip0_1_767">
<rect width="26" height="26" fill="white" transform="translate(0.0957031 0.777344)"/>
</clipPath>
</defs>
</svg>
