<svg width="18" height="18" viewBox="0 0 18 18" fill="none" xmlns="http://www.w3.org/2000/svg">
<g clip-path="url(#clip0_1_761)">
<path fill-rule="evenodd" clip-rule="evenodd" d="M2.45595 15.328L1.0918 0.0273438H16.0815L14.7159 15.3256L8.57749 17.0273L2.45595 15.328Z" fill="#E44D26"/>
<path fill-rule="evenodd" clip-rule="evenodd" d="M8.58667 15.7265L13.5468 14.3514L14.7138 1.27832H8.58667V15.7265Z" fill="#F16529"/>
<path d="M6.10349 6.95323H8.58667V8.82977H4.38729L3.88115 3.15503H8.58667V5.03161H5.93199L6.10349 6.95323Z" fill="#EBEBEB"/>
<path d="M8.57844 11.829L8.58667 11.8269V13.7793L8.57803 13.7817L4.73404 12.7145L4.47114 9.76808H6.35491L6.48851 11.2647L8.57844 11.829Z" fill="#EBEBEB"/>
<path d="M8.58018 3.15503H13.281L13.113 5.03161H8.58018V3.15503Z" fill="white"/>
<path d="M8.58018 8.82977V6.95323H12.9422L12.8964 7.45714L12.4272 12.7145L8.58018 13.7808V11.8284L10.6731 11.2635L10.891 8.82977H8.58018Z" fill="white"/>
</g>
<defs>
<clipPath id="clip0_1_761">
<rect width="17" height="17" fill="white" transform="translate(0.0957031 0.0273438)"/>
</clipPath>
</defs>
</svg>
