<svg width="23" height="23" viewBox="0 0 23 23" fill="none" xmlns="http://www.w3.org/2000/svg">
<g clip-path="url(#clip0_1_760)">
<rect width="22" height="22" transform="translate(0.0957031 0.0273438)" fill="white"/>
<path d="M8.24311 17.0413C8.24311 17.0413 7.4024 17.5302 8.84142 17.6956C10.5848 17.8945 11.4757 17.866 13.3969 17.5024C13.3969 17.5024 13.902 17.8191 14.6074 18.0934C10.3007 19.9392 4.86039 17.9865 8.24311 17.0413Z" fill="#5382A1"/>
<path d="M7.71698 14.6326C7.71698 14.6326 6.77404 15.3306 8.21412 15.4795C10.0764 15.6716 11.5471 15.6873 14.0919 15.1973C14.0919 15.1973 14.4439 15.5542 14.9974 15.7493C9.7903 17.2719 3.99051 15.8694 7.71698 14.6326Z" fill="#5382A1"/>
<path d="M12.1535 10.5466C13.2146 11.7684 11.8746 12.8678 11.8746 12.8678C11.8746 12.8678 14.5692 11.4768 13.3317 9.73498C12.1759 8.1106 11.2896 7.3035 16.0878 4.52075C16.0878 4.52075 8.55626 6.40177 12.1535 10.5466Z" fill="#E76F00"/>
<path d="M17.8495 18.8228C17.8495 18.8228 18.4716 19.3354 17.1643 19.732C14.6784 20.4851 6.81768 20.7125 4.634 19.762C3.84903 19.4205 5.32108 18.9466 5.78413 18.8472C6.26704 18.7424 6.54301 18.762 6.54301 18.762C5.67004 18.147 0.900481 19.9695 4.12031 20.4914C12.9013 21.9154 20.1271 19.8502 17.8495 18.8228Z" fill="#5382A1"/>
<path d="M8.64755 12.1369C8.64755 12.1369 4.64909 13.0866 7.2316 13.4315C8.32201 13.5774 10.4957 13.5444 12.5205 13.3748C14.1752 13.2352 15.8368 12.9384 15.8368 12.9384C15.8368 12.9384 15.2533 13.1883 14.8312 13.4765C10.7708 14.5444 2.92693 14.0476 5.18508 12.9553C7.0948 12.0322 8.64755 12.1369 8.64755 12.1369Z" fill="#5382A1"/>
<path d="M15.8202 16.1462C19.9478 14.0013 18.0394 11.9402 16.7073 12.2179C16.3808 12.2858 16.2353 12.3447 16.2353 12.3447C16.2353 12.3447 16.3565 12.1548 16.588 12.0726C19.2232 11.1462 21.2498 14.8051 15.7373 16.2543C15.7373 16.2543 15.8011 16.1972 15.8202 16.1462Z" fill="#5382A1"/>
<path d="M13.3318 0.0273438C13.3318 0.0273438 15.6177 2.31402 11.1637 5.83027C7.59208 8.65092 10.3493 10.2592 11.1622 12.0967C9.07741 10.2156 7.54743 8.55978 8.57386 7.01865C10.0804 4.7564 14.2541 3.65959 13.3318 0.0273438Z" fill="#E76F00"/>
<path d="M9.05301 21.9583C13.0149 22.2119 19.0989 21.8175 19.243 19.9429C19.243 19.9429 18.9661 20.6535 15.9687 21.2179C12.5871 21.8543 8.4164 21.78 5.9427 21.3722C5.94276 21.3721 6.4491 21.7913 9.05301 21.9583Z" fill="#5382A1"/>
</g>
<defs>
<clipPath id="clip0_1_760">
<rect width="22" height="22" fill="white" transform="translate(0.0957031 0.0273438)"/>
</clipPath>
</defs>
</svg>
