<svg width="23" height="23" viewBox="0 0 23 23" fill="none" xmlns="http://www.w3.org/2000/svg">
<g clip-path="url(#clip0_1_775)">
<path fill-rule="evenodd" clip-rule="evenodd" d="M0.0957031 0.222656H22.0957V22.2227H0.0957031V0.222656Z" fill="#F7DF1E"/>
<path fill-rule="evenodd" clip-rule="evenodd" d="M5.88032 18.6074L7.56391 17.5886C7.88871 18.1644 8.18417 18.6517 8.89289 18.6517C9.57223 18.6517 10.0005 18.3859 10.0005 17.3523V10.3228H12.068V17.3815C12.068 19.5228 10.8128 20.4975 8.98152 20.4975C7.32764 20.4975 6.3676 19.6409 5.88029 18.6073" fill="black"/>
<path fill-rule="evenodd" clip-rule="evenodd" d="M13.1909 18.3859L14.8743 17.4113C15.3175 18.135 15.8934 18.6666 16.9123 18.6666C17.769 18.6666 18.3152 18.2383 18.3152 17.6475C18.3152 16.9387 17.7541 16.6876 16.8089 16.2743L16.2922 16.0526C14.8006 15.4177 13.8111 14.6202 13.8111 12.9367C13.8111 11.3861 14.9925 10.2046 16.8385 10.2046C18.1529 10.2046 19.098 10.6624 19.7773 11.8586L18.1676 12.8923C17.8131 12.2574 17.4293 12.0064 16.8386 12.0064C16.2331 12.0064 15.8491 12.3903 15.8491 12.8923C15.8491 13.5126 16.2331 13.7637 17.1191 14.1477L17.6359 14.3692C19.3933 15.1224 20.3827 15.8902 20.3827 17.618C20.3827 19.4788 18.9208 20.4977 16.9567 20.4977C15.0369 20.4977 13.7964 19.5822 13.191 18.3859" fill="black"/>
</g>
<defs>
<clipPath id="clip0_1_775">
<rect width="22" height="22" fill="white" transform="translate(0.0957031 0.222656)"/>
</clipPath>
</defs>
</svg>
