<svg width="30" height="28" viewBox="0 0 30 28" fill="none" xmlns="http://www.w3.org/2000/svg">
<g clip-path="url(#clip0_1_777)">
<path d="M27.6221 22.6288H2.70297C1.57423 22.6288 0.619141 21.7067 0.619141 20.6169V7.37135C0.619141 6.28153 1.57423 5.35938 2.70297 5.35938H27.5353C28.6641 5.35938 29.6191 6.28153 29.6191 7.37135V20.6169C29.6191 21.7067 28.7509 22.6288 27.6221 22.6288ZM2.70297 6.70069C2.35567 6.70069 2.00836 7.03602 2.00836 7.37135V20.6169C2.00836 21.036 2.35567 21.2875 2.70297 21.2875H27.5353C27.9694 21.2875 28.2299 20.9522 28.2299 20.6169V7.37135C28.2299 6.95219 27.8826 6.70069 27.5353 6.70069C27.6221 6.70069 2.70297 6.70069 2.70297 6.70069ZM4.78681 18.6049V9.38333H7.56525L10.3437 12.7366L13.1221 9.38333H15.9006V18.6049H13.1221V13.3234L10.3437 16.6767L7.56525 13.3234V18.6049H4.78681ZM22.2389 18.6049L18.0712 14.1618H20.8497V9.38333H23.6281V14.0779H26.4066L22.2389 18.6049Z" fill="black"/>
</g>
<defs>
<clipPath id="clip0_1_777">
<rect width="29" height="28" fill="white" transform="translate(0.619141)"/>
</clipPath>
</defs>
</svg>
