<svg width="30" height="28" viewBox="0 0 30 28" fill="none" xmlns="http://www.w3.org/2000/svg">
<rect x="2" y="6" width="27" height="16" fill="white"/>
<mask id="mask0_853_182" style="mask-type:luminance" maskUnits="userSpaceOnUse" x="1" y="0" width="29" height="28">
<path d="M30 0H1V28H30V0Z" fill="white"/>
</mask>
<g mask="url(#mask0_853_182)">
<path d="M28.003 22.6288H3.08383C1.95509 22.6288 1 21.7067 1 20.6169V7.37135C1 6.28153 1.95509 5.35938 3.08383 5.35938H27.9162C29.045 5.35938 30 6.28153 30 7.37135V20.6169C30 21.7067 29.1318 22.6288 28.003 22.6288ZM3.08383 6.70069C2.73653 6.70069 2.38922 7.03602 2.38922 7.37135V20.6169C2.38922 21.036 2.73653 21.2875 3.08383 21.2875H27.9162C28.3503 21.2875 28.6108 20.9522 28.6108 20.6169V7.37135C28.6108 6.95219 28.2635 6.70069 27.9162 6.70069C28.003 6.70069 3.08383 6.70069 3.08383 6.70069ZM5.16767 18.6049V9.38333H7.94611L10.7246 12.7366L13.503 9.38333H16.2815V18.6049H13.503V13.3234L10.7246 16.6767L7.94611 13.3234V18.6049H5.16767ZM22.6198 18.6049L18.4521 14.1618H21.2306V9.38333H24.009V14.0779H26.7875L22.6198 18.6049Z" fill="black"/>
</g>
</svg>
