<svg width="24" height="24" viewBox="0 0 24 24" fill="none" xmlns="http://www.w3.org/2000/svg">
<g clip-path="url(#clip0_1_763)">
<path d="M19.4345 15.9256C19.6323 15.812 19.7545 15.6017 19.7553 15.3736L19.7668 11.6763C19.7675 11.4482 19.8897 11.2378 20.0875 11.1242L22.0917 9.97293C22.2894 9.8594 22.5327 9.85981 22.73 9.97401C22.9273 10.0882 23.0488 10.2989 23.0488 10.5269V17.2488C23.0488 17.4775 22.9265 17.6888 22.7281 17.8027L15.1641 22.1473C14.9675 22.2602 14.7258 22.2604 14.529 22.1479L8.59293 18.7528C8.39387 18.6391 8.27099 18.4275 8.27092 18.1982V14.8088C8.27092 14.805 8.27539 14.8024 8.27922 14.8043C8.28242 14.8063 8.28689 14.8043 8.28689 14.7999V14.796C8.28689 14.7935 8.28817 14.7909 8.29072 14.7896L13.1796 11.981C13.1841 11.9785 13.1822 11.9714 13.1771 11.9714C13.1743 11.9714 13.172 11.9691 13.172 11.9663L13.1816 8.64337C13.1825 8.41465 13.061 8.2029 12.8632 8.08815C12.6654 7.9734 12.4213 7.97316 12.2232 8.08752L8.58973 10.1812C8.39238 10.2949 8.14946 10.2949 7.9521 10.1812L4.30714 8.08241C4.10951 7.9686 3.86619 7.96878 3.66872 8.08286C3.47125 8.19695 3.34956 8.40764 3.34942 8.6357V14.6414C3.34958 14.8692 3.22842 15.0799 3.03143 15.1943C2.83444 15.3087 2.59143 15.3096 2.39362 15.1966L0.370839 14.0402C0.171389 13.9263 0.0484448 13.7141 0.048829 13.4844L0.0667193 2.98713C0.0672148 2.75938 0.188907 2.54911 0.386135 2.43523C0.583363 2.32134 0.826304 2.32105 1.0238 2.43447L7.95274 6.41422C8.14977 6.52737 8.39207 6.52737 8.58909 6.41422L15.5161 2.43447C15.7139 2.32088 15.9573 2.32135 16.1546 2.43571C16.352 2.55006 16.4734 2.76095 16.4732 2.98904V13.4888C16.4733 13.7174 16.3512 13.9287 16.1531 14.0428L12.5254 16.132C12.3271 16.2463 12.2051 16.458 12.2056 16.687C12.2061 16.9159 12.3291 17.1271 12.528 17.2405L14.529 18.3797C14.7258 18.4917 14.9671 18.4912 15.1634 18.3784L19.4345 15.9256ZM19.8543 6.50686C19.8545 6.73689 19.9783 6.94906 20.1785 7.06237C20.3787 7.17568 20.6243 7.17264 20.8216 7.05441L22.7383 5.90437C22.9308 5.78904 23.0487 5.58121 23.0488 5.35683V3.01332C23.0484 2.78341 22.9245 2.57145 22.7244 2.4583C22.5242 2.34514 22.2787 2.34824 22.0815 2.46642L20.1648 3.61645C19.9723 3.73178 19.8545 3.93962 19.8543 4.16399V6.5075V6.50686Z" fill="#007FFF"/>
</g>
<defs>
<clipPath id="clip0_1_763">
<rect width="23" height="23" fill="white" transform="translate(0.0488281 0.777344)"/>
</clipPath>
</defs>
</svg>
