<svg width="23" height="23" viewBox="0 0 23 23" fill="none" xmlns="http://www.w3.org/2000/svg">
<path d="M10.3753 0.783264C10.328 0.787564 10.1774 0.802616 10.0419 0.813367C6.91721 1.09505 3.99033 2.78082 2.13656 5.37184C1.10431 6.81249 0.44409 8.44665 0.194628 10.1776C0.106456 10.7818 0.0957031 10.9603 0.0957031 11.7795C0.0957031 12.5987 0.106456 12.7772 0.194628 13.3814C0.792477 17.512 3.73226 20.9824 7.71936 22.2683C8.43334 22.4984 9.18603 22.6553 10.0419 22.7499C10.3753 22.7865 11.8161 22.7865 12.1495 22.7499C13.6269 22.5865 14.8785 22.221 16.1129 21.591C16.3022 21.4942 16.3387 21.4684 16.3129 21.4469C16.2957 21.434 15.4893 20.3524 14.5215 19.0451L12.7624 16.6691L10.5581 13.4072C9.34517 11.6139 8.34732 10.1475 8.33871 10.1475C8.33011 10.1453 8.32151 11.5946 8.31721 13.3642C8.31076 16.4627 8.30861 16.5874 8.2699 16.6605C8.21398 16.7659 8.17097 16.8089 8.08065 16.8562C8.01183 16.8906 7.95162 16.897 7.62689 16.897H7.25484L7.15592 16.8347C7.0914 16.7938 7.04409 16.7401 7.01183 16.6777L6.96667 16.5809L6.97097 12.2697L6.97742 7.9564L7.04409 7.87254C7.0785 7.82739 7.15162 7.76933 7.20323 7.74138C7.2914 7.69838 7.32581 7.69408 7.69785 7.69408C8.13656 7.69408 8.20968 7.71128 8.32366 7.83599C8.35592 7.87039 9.54947 9.66798 10.9774 11.8333C12.4054 13.9985 14.3581 16.9551 15.3172 18.4065L17.0591 21.0448L17.1473 20.9867C17.928 20.4793 18.7538 19.7568 19.4075 19.0042C20.7989 17.4066 21.6957 15.4585 21.9968 13.3814C22.085 12.7772 22.0957 12.5987 22.0957 11.7795C22.0957 10.9603 22.085 10.7818 21.9968 10.1776C21.3989 6.04701 18.4591 2.57655 14.472 1.29072C13.7688 1.06279 13.0204 0.905827 12.1817 0.811217C11.9753 0.789715 10.5538 0.766062 10.3753 0.783264ZM14.8785 7.43605C14.9817 7.48766 15.0656 7.58657 15.0957 7.68978C15.1129 7.74568 15.1172 8.94121 15.1129 11.6354L15.1065 15.5015L14.4247 14.4565L13.7409 13.4115V10.6012C13.7409 8.78424 13.7495 7.76288 13.7624 7.71343C13.7968 7.59302 13.872 7.49841 13.9753 7.4425C14.0634 7.39735 14.0957 7.39305 14.4333 7.39305C14.7516 7.39305 14.8075 7.39735 14.8785 7.43605Z" fill="black"/>
</svg>
