<svg width="23" height="22" viewBox="0 0 23 22" fill="none" xmlns="http://www.w3.org/2000/svg">
<g clip-path="url(#clip0_1_773)">
<path d="M0.380859 7.9619C0.380859 5.17498 0.380859 3.78151 0.923232 2.71705C1.40032 1.78072 2.16158 1.01946 3.09791 0.542372C4.16237 0 5.55584 0 8.34276 0H14.419C17.2059 0 18.5993 0 19.6638 0.542372C20.6001 1.01946 21.3614 1.78072 21.8385 2.71705C22.3809 3.78151 22.3809 5.17498 22.3809 7.96191V14.0381C22.3809 16.825 22.3809 18.2185 21.8385 19.283C21.3614 20.2193 20.6001 20.9805 19.6638 21.4576C18.5993 22 17.2059 22 14.419 22H8.34276C5.55584 22 4.16237 22 3.09791 21.4576C2.16158 20.9805 1.40032 20.2193 0.923232 19.283C0.380859 18.2185 0.380859 16.825 0.380859 14.0381V7.9619Z" fill="#001E36"/>
<path d="M5.09515 16.1198V6.44547C5.09515 6.37966 5.12265 6.34205 5.18682 6.34205C6.1341 6.34205 7.08095 6.28564 8.02849 6.28564C9.56599 6.28564 11.2308 6.81136 11.8143 8.41983C11.9518 8.8147 12.0252 9.21898 12.0252 9.64206C12.0252 10.4506 11.8418 11.1181 11.4752 11.6446C10.4509 13.1153 8.67565 13.0925 7.08432 13.0925V16.1104C7.09677 16.1998 7.02062 16.2421 6.94682 16.2421H5.20515C5.13182 16.2421 5.09515 16.2045 5.09515 16.1198ZM7.09349 8.15659V11.3156C7.72446 11.3618 8.38473 11.3668 8.99099 11.1651C9.66028 10.9721 10.0268 10.3927 10.0268 9.69847C10.0454 9.1069 9.72307 8.5393 9.17432 8.32582C8.57537 8.07677 7.74003 8.06185 7.09349 8.15659Z" fill="#31A8FF"/>
<path d="M17.7425 10.6914C17.4652 10.5453 17.1698 10.4383 16.8644 10.3736C16.472 10.2812 14.9243 9.95784 14.9237 10.7671C14.9374 11.2189 15.6546 11.4403 15.9715 11.5694C17.084 11.9513 18.3428 12.634 18.3181 14.0064C18.3521 15.7149 16.6968 16.3978 15.2779 16.398C14.5392 16.4056 13.7697 16.2912 13.0936 15.9742C13.0291 15.94 12.9876 15.8669 12.9903 15.7925V14.1577C12.983 14.0922 13.0534 14.0349 13.1084 14.0821C13.7708 14.4826 14.5559 14.6771 15.3221 14.6875C15.6604 14.6875 16.3308 14.6547 16.3257 14.1577C16.3257 13.6808 15.5237 13.4615 15.2041 13.3404C14.7407 13.1749 14.3013 12.9458 13.898 12.6592C13.3343 12.2572 12.9807 11.6125 12.9903 10.9033C12.987 9.29468 14.5107 8.57263 15.883 8.57229C16.5245 8.567 17.2134 8.6145 17.8105 8.87502C17.8964 8.9003 17.9142 8.99075 17.9138 9.0718V10.6006C17.9193 10.6955 17.8139 10.7278 17.7425 10.6914Z" fill="#31A8FF"/>
</g>
<defs>
<clipPath id="clip0_1_773">
<rect width="22" height="22" fill="white" transform="translate(0.380859)"/>
</clipPath>
</defs>
</svg>
