<svg width="26" height="26" viewBox="0 0 26 26" fill="none" xmlns="http://www.w3.org/2000/svg">
<g clip-path="url(#clip0_1_758)">
<path d="M12.4757 0.125C6.14444 0.125 6.5398 2.87062 6.5398 2.87062L6.54686 5.71506H12.5886V6.5691H4.14709C4.14709 6.5691 0.0957031 6.10964 0.0957031 12.498C0.0957027 18.8863 3.63184 18.6597 3.63184 18.6597H5.74223V15.6953C5.74223 15.6953 5.62847 12.1592 9.2219 12.1592H15.2143C15.2143 12.1592 18.581 12.2136 18.581 8.90535V3.43528C18.581 3.43528 19.0922 0.125 12.4757 0.125ZM9.14426 2.03776C9.74538 2.03776 10.2312 2.5236 10.2312 3.12472C10.2312 3.72583 9.74538 4.21167 9.14426 4.21167C8.54315 4.21167 8.05731 3.72583 8.05731 3.12472C8.05731 2.5236 8.54315 2.03776 9.14426 2.03776Z" fill="url(#paint0_linear_1_758)"/>
<path d="M12.6555 24.9349C18.9868 24.9349 18.5914 22.1893 18.5914 22.1893L18.5844 19.3448H12.5426V18.4908H20.9842C20.9842 18.4908 25.0355 18.9503 25.0355 12.5619C25.0355 6.17362 21.4994 6.40016 21.4994 6.40016H19.389V9.36459C19.389 9.36459 19.5028 12.9007 15.9093 12.9007H9.91696C9.91696 12.9007 6.55022 12.8463 6.55022 16.1545V21.6246C6.55022 21.6246 6.03905 24.9349 12.6555 24.9349ZM15.987 23.0221C15.3859 23.0221 14.9 22.5363 14.9 21.9352C14.9 21.3341 15.3859 20.8482 15.987 20.8482C16.5881 20.8482 17.0739 21.3341 17.0739 21.9352C17.0739 22.5363 16.5881 23.0221 15.987 23.0221Z" fill="url(#paint1_linear_1_758)"/>
</g>
<defs>
<linearGradient id="paint0_linear_1_758" x1="2.49247" y1="2.35659" x2="14.8517" y2="14.5926" gradientUnits="userSpaceOnUse">
<stop stop-color="#387EB8"/>
<stop offset="1" stop-color="#366994"/>
</linearGradient>
<linearGradient id="paint1_linear_1_758" x1="10.0786" y1="10.2137" x2="23.3511" y2="22.7606" gradientUnits="userSpaceOnUse">
<stop stop-color="#FFE052"/>
<stop offset="1" stop-color="#FFC331"/>
</linearGradient>
<clipPath id="clip0_1_758">
<rect width="25" height="25" fill="white" transform="translate(0.0957031 0.0273438)"/>
</clipPath>
</defs>
</svg>
