<svg width="25" height="24" viewBox="0 0 25 24" fill="none" xmlns="http://www.w3.org/2000/svg">
<g clip-path="url(#clip0_1_785)">
<path d="M14.9532 14.2919L14.4929 15.0579C14.3542 15.2887 14.0974 15.4309 13.8195 15.4309H10.2929C10.015 15.4309 9.75832 15.2887 9.61963 15.0579L9.15924 14.2919H14.9532ZM16.242 12.1473L15.4303 13.498H8.68217L7.87049 12.1473H16.242ZM15.4601 10.0501L16.2433 11.3534H7.86919L8.65239 10.0501H15.4601ZM13.8195 8.06763C14.0974 8.06763 14.3542 8.20985 14.4929 8.44063L14.983 9.25626H9.12945L9.61963 8.44063C9.75832 8.20985 10.015 8.06763 10.2929 8.06763H13.8195Z" fill="#00435B"/>
<path d="M5.16034 7.71209C4.76968 5.89671 4.68584 4.50433 4.93836 3.49327C5.08855 2.89195 5.36312 2.4014 5.78063 2.04748C6.22142 1.67383 6.77871 1.49048 7.40488 1.49048C8.43789 1.49048 9.52383 1.94191 10.6844 2.79952C11.1577 3.14932 11.649 3.57096 12.1592 4.06465C12.1998 4.01455 12.2457 3.96729 12.2969 3.92362C13.7393 2.69174 14.9538 1.92635 15.9925 1.63125C16.6101 1.45577 17.19 1.43906 17.718 1.60936C18.2754 1.78912 18.7195 2.16072 19.0329 2.68121C19.55 3.54021 19.6864 4.66894 19.4936 6.06263C19.415 6.63071 19.2807 7.24951 19.0908 7.92C19.1625 7.92829 19.2343 7.9435 19.3053 7.96607C21.1355 8.5473 22.4315 9.17233 23.2161 9.88664C23.6829 10.3116 23.9877 10.7848 24.0979 11.3085C24.2142 11.8613 24.1008 12.4158 23.7878 12.9359C23.2717 13.7937 22.3226 14.4702 20.9705 15.006C20.4276 15.2212 19.8133 15.416 19.127 15.5913C19.1583 15.659 19.1826 15.731 19.1988 15.8065C19.5895 17.6219 19.6733 19.0142 19.4208 20.0253C19.2706 20.6266 18.9961 21.1172 18.5786 21.4711C18.1378 21.8448 17.5805 22.0281 16.9543 22.0281C15.9213 22.0281 14.8354 21.5767 13.6748 20.7191C13.1964 20.3655 12.6997 19.9386 12.1837 19.4381C12.1306 19.5177 12.0654 19.5917 11.9883 19.6576C10.5458 20.8895 9.33139 21.6548 8.29267 21.9499C7.67505 22.1254 7.09519 22.1421 6.56713 21.9718C6.00974 21.7921 5.56561 21.4205 5.25226 20.9C4.73513 20.041 4.59876 18.9123 4.79156 17.5186C4.87298 16.9299 5.01428 16.2869 5.21512 15.5883C5.13661 15.5807 5.05779 15.5647 4.97984 15.54C3.14966 14.9588 1.8537 14.3337 1.0691 13.6194C0.602283 13.1944 0.297445 12.7213 0.187248 12.1975C0.0709348 11.6447 0.184349 11.0903 0.49733 10.5702C1.0135 9.7124 1.96258 9.0359 3.31467 8.50006C3.87376 8.27849 4.50852 8.07844 5.21971 7.89918C5.19437 7.83973 5.17436 7.77723 5.16034 7.71209Z" fill="#002B3B"/>
<path d="M17.922 15.9849C18.104 15.954 18.2783 16.0658 18.319 16.2374L18.3212 16.2475L18.3406 16.344C18.9696 19.5134 18.5265 21.0981 17.0112 21.0981C15.5287 21.0981 13.6414 19.7459 11.3494 17.0415C11.2988 16.9817 11.2715 16.9069 11.2722 16.8299C11.2738 16.6506 11.424 16.5059 11.6098 16.502L11.6205 16.5019L11.7412 16.5027C12.7057 16.5077 13.6433 16.4755 14.5541 16.406C15.6292 16.324 16.7518 16.1837 17.922 15.9849ZM7.51563 13.5892L7.52144 13.5986L7.582 13.6999C8.06733 14.5085 8.57298 15.2759 9.09895 16.0023C9.71836 16.8576 10.4149 17.7236 11.1886 18.6001C11.3083 18.7357 11.2947 18.9369 11.1596 19.0566L11.1509 19.0641L11.073 19.1283C8.51307 21.2304 6.84922 21.65 6.08143 20.3873C5.32989 19.1512 5.60237 16.9037 6.89886 13.6447C6.92735 13.5731 6.98089 13.5132 7.05035 13.4752C7.21267 13.3864 7.41848 13.4377 7.51563 13.5892ZM19.221 8.91249L19.2315 8.91576L19.3279 8.94765C22.4877 10.001 23.6882 11.1586 22.9294 12.4205C22.1872 13.6546 20.0297 14.5532 16.4568 15.1162C16.3771 15.1287 16.2953 15.1141 16.2257 15.0749C16.0613 14.9823 16.0064 14.7795 16.103 14.6219C16.6148 13.7877 17.0757 12.9576 17.4857 12.1318C17.9508 11.1951 18.3872 10.1897 18.795 9.11565C18.8568 8.9528 19.0385 8.86435 19.2105 8.90955L19.221 8.91249ZM8.05943 8.38212C8.22385 8.47475 8.27877 8.67757 8.18212 8.83513C7.67038 9.66934 7.20948 10.4994 6.79943 11.3253C6.33438 12.2619 5.89796 13.2673 5.49015 14.3414C5.42706 14.5076 5.23924 14.5963 5.06413 14.5446L5.05364 14.5413L4.95729 14.5094C1.79747 13.456 0.596973 12.2984 1.3558 11.0365C2.09795 9.8024 4.25549 8.90384 7.8284 8.34086C7.90808 8.32831 7.98983 8.34291 8.05943 8.38212ZM18.2037 3.19387C18.9553 4.42993 18.6828 6.67744 17.3863 9.9364C17.3578 10.008 17.3043 10.0679 17.2348 10.1059C17.0725 10.1947 16.8667 10.1434 16.7695 9.99195L16.7637 9.98255L16.7032 9.88126C16.2178 9.07266 15.7122 8.30519 15.1862 7.57887C14.5668 6.7235 13.8702 5.85757 13.0965 4.98109C12.9768 4.84549 12.9905 4.64423 13.1255 4.52453L13.1343 4.51701L13.2121 4.45279C15.7721 2.35074 17.4359 1.9311 18.2037 3.19387ZM7.4034 2.44165C8.88596 2.44165 10.7732 3.79387 13.0652 6.49831C13.1158 6.55807 13.1432 6.63287 13.1425 6.70985C13.1408 6.88916 12.9907 7.03392 12.8049 7.0378L12.7941 7.03787L12.6734 7.03705C11.709 7.03204 10.7713 7.06427 9.86058 7.13373C8.78548 7.21573 7.66284 7.3561 6.49266 7.55484C6.31069 7.58575 6.13631 7.47395 6.09568 7.30242L6.09345 7.29226L6.07406 7.19573C5.44501 4.02634 5.88812 2.44165 7.4034 2.44165Z" fill="#FF4154"/>
<path d="M13.5367 8.10889H10.5764C10.1435 8.10889 9.74367 8.33079 9.52818 8.69062L8.04181 11.1726C7.82798 11.5297 7.82798 11.9687 8.04181 12.3257L9.52818 14.8077C9.74367 15.1676 10.1435 15.3895 10.5764 15.3895H13.5367C13.9696 15.3895 14.3695 15.1676 14.585 14.8077L16.0713 12.3257C16.2852 11.9687 16.2852 11.5297 16.0713 11.1726L14.585 8.69062C14.3695 8.33079 13.9696 8.10889 13.5367 8.10889Z" fill="#FFD94C"/>
</g>
<defs>
<clipPath id="clip0_1_785">
<rect width="24" height="23" fill="white" transform="translate(0.142578 0.277344)"/>
</clipPath>
</defs>
</svg>
