<svg width="21" height="24" viewBox="0 0 21 24" fill="none" xmlns="http://www.w3.org/2000/svg">
<path fill-rule="evenodd" clip-rule="evenodd" d="M6.53867 14.8514C6.17539 15.08 5.62805 15.4503 5.20461 15.8532C4.50945 16.5137 4.36398 17.4301 4.7307 17.6441C5.06992 17.842 5.86187 17.6065 6.42867 16.9845C7.02351 16.3314 7.26883 15.5034 7.01547 14.5635C6.9857 14.5813 6.95648 14.5993 6.92781 14.6159L6.92844 14.6172L6.89 14.6391C6.74211 14.728 6.62125 14.8012 6.53867 14.8514ZM16.7473 14.5549C16.5416 15.0048 16.5312 15.1496 16.5938 15.1947C16.8923 15.0867 17.3863 14.8266 17.3902 14.1296C17.3909 14.0252 17.368 13.9131 17.3312 13.7961C17.012 14.0805 16.828 14.3783 16.7473 14.5549ZM19.9512 13.1943C19.1536 13.1007 18.5312 13.2133 18.0481 13.4158C18.1376 13.6501 18.2063 13.8941 18.216 14.1399C18.2384 14.6795 17.8694 15.0787 17.4848 15.3638C17.2602 15.53 17.0212 15.6407 16.8205 15.7076C16.6602 15.7757 16.447 15.8461 16.2956 15.815C15.962 15.7468 15.7845 15.4486 16.0114 14.7908C16.134 14.4349 16.4876 13.893 17.0584 13.4263C16.9283 13.1568 16.7833 12.8822 16.7094 12.6299C16.5637 12.1326 16.5198 11.832 16.5198 11.832C16.5198 11.832 16.0493 12.8135 15.4423 13.7061C15.4073 13.7579 15.3724 13.8088 15.3374 13.8595C15.4566 14.1383 15.5505 14.4331 15.5633 14.7303C15.5856 15.2698 15.3535 15.6777 14.9684 15.9621C14.7598 16.1168 14.5374 16.2237 14.3466 16.2917C14.2245 16.3453 13.9763 16.4335 13.6234 16.4572C13.4303 16.4705 13.2446 16.4585 13.1409 16.3794C12.9982 16.2709 12.981 16.137 13.0549 15.9541C13.1174 15.7988 13.585 15.2617 13.977 14.7915C14.0853 14.6616 14.1884 14.5289 14.2807 14.406L14.2784 14.4008C14.2784 14.4008 14.3495 14.3086 14.4647 14.1476C14.3214 13.8371 14.1398 13.5139 14.0544 13.2209C13.9087 12.7236 13.8647 12.4229 13.8647 12.4229C13.8647 12.4229 13.3878 13.6531 12.891 14.6351C12.5066 15.3957 12.2498 15.8566 12.1341 16.0586L12.1329 16.0667C12.1329 16.0667 12.1156 16.0961 12.0859 16.1423L12.0636 16.1797L12.063 16.1763C11.934 16.3679 11.6446 16.7434 11.357 16.7434C10.5673 16.7434 10.8572 15.1296 10.8572 15.1296C10.8572 15.1296 10.6263 15.7274 10.3661 16.2403C10.1541 16.6586 9.96101 17.013 9.53867 17.013C9.41719 17.013 9.22461 17.0095 9.06469 16.8565C8.70195 16.5097 8.42461 15.6292 8.47898 14.9472C8.52539 14.3674 8.61422 13.9657 8.7357 13.6306C8.51906 13.7494 8.26867 13.8903 8.01367 14.0409L7.62164 14.2733L7.6343 14.2964C7.95859 14.9277 8.04516 16.3108 7.33797 17.3724C6.63086 18.4347 5.31453 19.0809 4.03203 18.7221C3.6182 18.606 2.99305 17.7446 3.53227 16.5438C4.00789 15.485 5.90875 14.4839 6.40969 14.2341L6.54719 14.1579C5.54844 13.2786 3.05437 12.0923 2.70484 10.2701C2.60625 9.75715 2.84523 8.53047 4.34203 7.1203C5.60102 5.93458 7.35234 5.02636 8.97016 4.44761C11.6881 3.47539 14.5598 4.04888 15.0016 5.7926C15.436 7.50748 13.9576 9.55873 12.0641 10.2961C10.3736 10.9544 8.97586 10.85 8.40164 10.6603C7.74891 10.4445 7.36609 10.0111 7.27273 9.76643C7.23602 9.67068 7.17289 9.50976 7.27273 9.45434C7.33398 9.4203 7.35859 9.42839 7.5225 9.6107C7.67844 9.7838 8.30531 10.2483 9.49617 10.1138C12.6212 9.76132 14.5036 7.31652 13.9087 6.00093C13.4922 5.08005 11.0836 4.66458 8.07437 6.17459C4.40102 8.01752 4.20164 9.5368 4.17016 10.1138C4.08414 11.7011 6.11562 12.5361 7.21484 13.7165L7.25719 13.7633C7.46289 13.6491 7.68016 13.5285 7.89328 13.4108C8.4475 13.1044 8.97016 12.8169 9.21367 12.6831C9.60055 12.1172 10.3855 11.4928 10.9523 11.4928C11.8584 11.4928 11.5472 12.8032 11.5472 12.8032C11.5472 12.8032 11.5655 12.7432 11.5902 12.7427C11.6159 12.7419 11.7157 12.57 11.9954 12.6727C12.283 12.7789 12.2177 12.982 12.2195 13.0028C12.2229 13.0431 11.8796 14.2081 11.737 14.9553C11.6687 15.3119 11.7082 15.5716 11.7284 15.5716C11.7564 15.5716 11.8137 15.481 11.867 15.3835L11.8659 15.3806C11.8659 15.3806 11.9059 15.3068 11.973 15.1741L11.9862 15.1463L11.9868 15.1476C12.0659 14.9918 12.177 14.7627 12.3054 14.4788C12.557 13.9209 13.5168 11.7669 13.5982 11.5286C13.6795 11.2904 13.722 11.044 13.7621 10.9383C13.8016 10.8327 14.1409 10.7531 14.5374 10.756C14.934 10.7589 14.9742 10.9291 14.977 10.9643C14.9798 10.9995 14.7884 11.4721 14.7443 11.8061C14.7008 12.1402 14.7427 12.3069 14.7787 12.5874C14.8023 12.7708 14.9162 13.0034 15.051 13.2671C15.4613 12.592 16.1833 11.3007 16.2527 10.9389C16.3002 10.6914 16.3764 10.4542 16.4166 10.3486C16.4566 10.243 16.7954 10.1634 17.1919 10.1663C17.5884 10.1692 17.6285 10.3394 17.6314 10.3746C17.6343 10.4098 17.4423 10.8823 17.3988 11.2165C17.3552 11.5499 17.3971 11.7173 17.4331 11.9977C17.4641 12.2377 17.6486 12.5603 17.8315 12.9272C18.3305 12.6796 18.918 12.5135 19.6057 12.51C19.8905 12.5084 20.2212 12.5372 20.392 12.5908V7.07062C20.392 6.68117 20.1936 6.3223 19.8584 6.12789L10.9095 0.923211C10.5748 0.728721 10.1651 0.728721 9.83039 0.923211L0.906094 6.12537C0.571406 6.31986 0.392578 6.67936 0.392578 7.06818V17.482C0.392578 17.8708 0.5725 18.2303 0.906641 18.4248L9.84531 23.631C10.1799 23.8261 10.5857 23.8261 10.9203 23.631L19.863 18.4248C20.1977 18.2297 20.3926 17.8708 20.3926 17.482V13.2734C20.2791 13.2397 20.1129 13.2132 19.9512 13.1943ZM10.3237 12.6489C10.1318 12.8653 9.80461 13.4232 9.65156 13.8902C9.34727 14.8173 9.47906 15.7596 9.69453 15.8162C9.94609 15.8825 10.3587 14.6431 10.5563 14.1584C10.6802 13.8549 11.1616 12.5077 11.0561 12.3277C10.9737 12.1869 10.6327 12.3005 10.3237 12.6489ZM13.8052 15.774C13.8052 15.774 13.7445 15.8318 13.7708 15.8479C13.8063 15.8693 13.8831 15.8415 13.9668 15.7977C14.2035 15.6477 14.7347 15.2738 14.7359 14.7204C14.7359 14.7043 14.7352 14.6887 14.7341 14.672C14.6109 14.8347 14.4974 14.9795 14.3995 15.1024C14.2321 15.3118 13.8052 15.774 13.8052 15.774Z" fill="#8CC84B"/>
</svg>
