<svg width="29" height="28" viewBox="0 0 29 28" fill="none" xmlns="http://www.w3.org/2000/svg">
<path d="M14.6426 5.65625C10.9092 5.65625 8.57591 7.45625 7.64258 11.0563C9.04258 9.25625 10.6759 8.58125 12.5426 9.03125C13.6076 9.288 14.3689 10.0331 15.2114 10.8578C16.5841 12.2013 18.1727 13.7563 21.6426 13.7563C25.3759 13.7563 27.7092 11.9563 28.6426 8.35625C27.2426 10.1562 25.6092 10.8312 23.7426 10.3812C22.6775 10.1245 21.9163 9.37945 21.0737 8.5547C19.7011 7.2112 18.1125 5.65625 14.6426 5.65625ZM7.64258 13.7563C3.90924 13.7563 1.57591 15.5562 0.642578 19.1562C2.04258 17.3562 3.67591 16.6813 5.54258 17.1313C6.60761 17.388 7.36885 18.133 8.21144 18.9578C9.58407 20.3013 11.1727 21.8563 14.6426 21.8563C18.3759 21.8563 20.7092 20.0562 21.6426 16.4563C20.2426 18.2563 18.6092 18.9312 16.7426 18.4812C15.6775 18.2245 14.9163 17.4795 14.0737 16.6547C12.7011 15.3112 11.1125 13.7563 7.64258 13.7563Z" fill="url(#paint0_linear_1_764)"/>
<defs>
<linearGradient id="paint0_linear_1_764" x1="-0.1352" y1="10.8403" x2="23.6006" y2="25.0326" gradientUnits="userSpaceOnUse">
<stop stop-color="#2298BD"/>
<stop offset="1" stop-color="#0ED7B5"/>
</linearGradient>
</defs>
</svg>
