<svg width="22" height="29" viewBox="0 0 22 29" fill="none" xmlns="http://www.w3.org/2000/svg">
<path d="M9.11524 4.00667C6.59877 3.91776 4.0826 4.71789 2 6.40706L3.3883 7.20718C5.03704 5.96254 7.11935 5.42912 9.11524 5.51802V4.00667Z" fill="url(#paint0_linear_95_401)"/>
<path d="M16.4906 7.38513C14.7552 5.51816 12.4991 4.36241 10.0697 4.0957V5.60706C12.1523 5.96268 13.9745 6.94061 15.4495 8.45197L16.4906 7.38513Z" fill="url(#paint1_linear_95_401)"/>
<path d="M19.6144 14.6751C19.5277 12.3636 18.6599 10.0521 17.1849 8.09619L16.1435 9.16303C17.3583 10.8522 18.0526 12.7192 18.1394 14.6751H19.6144Z" fill="url(#paint2_linear_95_401)"/>
<path d="M17.1849 22.3208C18.6599 20.3649 19.5277 18.0534 19.6144 15.7419H18.1394C18.0526 17.6978 17.3583 19.5648 16.1435 21.2539L17.1849 22.3208Z" fill="url(#paint3_linear_95_401)"/>
<path d="M10.0697 26.3216C12.4124 26.0549 14.7552 24.8991 16.4906 23.0322L15.4495 21.9653C13.9745 23.5656 12.0653 24.5435 10.0697 24.8102V26.3216Z" fill="url(#paint4_linear_95_401)"/>
<path d="M2 24.0098C4.0826 25.699 6.59877 26.4991 9.11524 26.4102V24.8989C7.11935 24.9878 5.12376 24.4543 3.3883 23.2097L2 24.0098Z" fill="url(#paint5_linear_95_401)"/>
<path d="M8.719 9.02954C9.6464 9.02954 10.5024 9.19136 11.2869 9.51503C12.0714 9.82825 12.744 10.2668 13.3045 10.8305C13.8751 11.3943 14.3184 12.0573 14.6344 12.8195C14.9503 13.5712 15.1082 14.3856 15.1082 15.2626C15.1082 16.1396 14.9503 16.9592 14.6344 17.7214C14.3184 18.4731 13.8751 19.1309 13.3045 19.6946C12.744 20.2584 12.0714 20.7022 11.2869 21.0258C10.5024 21.339 9.6464 21.4957 8.719 21.4957C7.78161 21.4957 6.92035 21.339 6.13581 21.0258C5.36126 20.7022 4.69401 20.2584 4.13346 19.6946C3.5729 19.1309 3.13492 18.4731 2.81893 17.7214C2.50294 16.9592 2.34509 16.1396 2.34509 15.2626C2.34509 14.3856 2.50294 13.5712 2.81893 12.8195C3.13492 12.0573 3.5729 11.3943 4.13346 10.8305C4.69401 10.2668 5.36126 9.82825 6.13581 9.51503C6.92035 9.19136 7.78161 9.02954 8.719 9.02954ZM8.719 12.0051C8.28073 12.0051 7.86303 12.0886 7.46562 12.2557C7.07849 12.4123 6.73693 12.6368 6.44151 12.9291C6.1461 13.2215 5.91153 13.566 5.7384 13.9627C5.56526 14.3595 5.47855 14.7928 5.47855 15.2626C5.47855 15.7324 5.56526 16.1657 5.7384 16.5625C5.91153 16.9592 6.1461 17.3037 6.44151 17.5961C6.73693 17.8884 7.07849 18.1181 7.46562 18.2852C7.86303 18.4418 8.28073 18.5201 8.719 18.5201C9.15727 18.5201 9.56997 18.4418 9.9571 18.2852C10.3545 18.1181 10.7011 17.8884 10.9965 17.5961C11.3022 17.3037 11.5418 16.9592 11.7149 16.5625C11.888 16.1657 11.9747 15.7324 11.9747 15.2626C11.9747 14.7928 11.888 14.3595 11.7149 13.9627C11.5418 13.566 11.3022 13.2215 10.9965 12.9291C10.7011 12.6368 10.3545 12.4123 9.9571 12.2557C9.56997 12.0886 9.15727 12.0051 8.719 12.0051Z" fill="black"/>
<defs>
<linearGradient id="paint0_linear_95_401" x1="882.719" y1="4" x2="882.719" y2="2245.7" gradientUnits="userSpaceOnUse">
<stop stop-color="#1E90FF"/>
<stop offset="1" stop-color="#FF1E56"/>
</linearGradient>
<linearGradient id="paint1_linear_95_401" x1="83.8204" y1="-5.46097" x2="83.8204" y2="2236.24" gradientUnits="userSpaceOnUse">
<stop stop-color="#1E90FF"/>
<stop offset="1" stop-color="#FF1E56"/>
</linearGradient>
<linearGradient id="paint2_linear_95_401" x1="-517.485" y1="-401.525" x2="-517.485" y2="1840.17" gradientUnits="userSpaceOnUse">
<stop stop-color="#1E90FF"/>
<stop offset="1" stop-color="#FF1E56"/>
</linearGradient>
<linearGradient id="paint3_linear_95_401" x1="-517.485" y1="-1158.45" x2="-517.485" y2="1083.25" gradientUnits="userSpaceOnUse">
<stop stop-color="#1E90FF"/>
<stop offset="1" stop-color="#FF1E56"/>
</linearGradient>
<linearGradient id="paint4_linear_95_401" x1="83.8206" y1="-1774.55" x2="83.8206" y2="467.149" gradientUnits="userSpaceOnUse">
<stop stop-color="#1E90FF"/>
<stop offset="1" stop-color="#FF1E56"/>
</linearGradient>
<linearGradient id="paint5_linear_95_401" x1="882.719" y1="-1897.77" x2="882.719" y2="343.928" gradientUnits="userSpaceOnUse">
<stop stop-color="#1E90FF"/>
<stop offset="1" stop-color="#FF1E56"/>
</linearGradient>
</defs>
</svg>
